<?xml version="1.0" encoding="UTF-8" standalone="no"?>
<!DOCTYPE svg PUBLIC "-//W3C//DTD SVG 1.1//EN" "http://www.w3.org/Graphics/SVG/1.1/DTD/svg11.dtd">
<svg width="100%" height="100%" viewBox="0 0 4267 4267" version="1.1" xmlns="http://www.w3.org/2000/svg" xmlns:xlink="http://www.w3.org/1999/xlink" xml:space="preserve" xmlns:serif="http://www.serif.com/" style="fill-rule:evenodd;clip-rule:evenodd;stroke-linejoin:round;stroke-miterlimit:2;">
    <g transform="matrix(1.379459,-0.000107,-0.000076,-0.978818,1145.092852,3959.394681)">
        <path d="M2263,775.75L2263,2955.25C2263,3556.699 1916.518,4045 1489.75,4045L-56.75,4045C-483.518,4045 -830,3556.699 -830,2955.25L-830,775.75C-830,174.301 -483.518,-314 -56.75,-314L1489.75,-314C1916.518,-314 2263,174.301 2263,775.75Z" style="fill:rgb(76,134,182);"/>
    </g>
    <g transform="matrix(1.023714,0.011581,0.011714,-1.035436,287.816743,4135.742492)">
        <g transform="matrix(4.800967,0,0,4.800967,1860.667484,621.190083)">
            <path d="M0,0C0.908,0.412 1.816,0.823 2.751,1.248C15.408,7.039 27.581,13.012 39,21C40.98,22.32 42.96,23.64 45,25L45,-12L122,-12L122,191C112.1,193.31 102.2,195.62 92,198C86.423,199.859 81.319,201.65 76,204C75.344,204.279 74.688,204.558 74.012,204.845C64.108,209.072 55.066,214.228 46.067,220.139C44.922,220.89 44.922,220.89 43.754,221.656C42.738,222.334 42.738,222.334 41.701,223.025C40,224 40,224 38,224C38.146,223.279 38.292,222.559 38.443,221.816C39.11,218.524 39.774,215.231 40.438,211.938C40.668,210.804 40.898,209.67 41.135,208.502C47.872,175.01 42.262,142.116 24,113C20.664,108.048 16.955,103.468 13,99C12.223,98.111 11.445,97.221 10.645,96.305C-0.073,84.851 -13.587,76.885 -28,71C-28.946,70.602 -29.892,70.203 -30.867,69.793C-56.424,60.128 -84.522,63.195 -109.055,74.082C-114.798,76.779 -119.934,80.195 -125,84C-125.86,84.638 -126.72,85.276 -127.605,85.934C-152.037,104.759 -167.26,131.893 -173,162C-173.364,163.703 -173.364,163.703 -173.734,165.441C-179.709,198.342 -172.407,234.155 -153.72,261.901C-149.31,268.106 -144.455,273.689 -139,279L-139,281C-138.408,281.267 -137.817,281.534 -137.207,281.809C-134.962,283.021 -133.509,284.291 -131.688,286.062C-118.805,297.575 -102.59,304.092 -86,308C-84.878,308.265 -84.878,308.265 -83.733,308.535C-60.563,312.478 -36.62,308.865 -16,298C-14.974,297.477 -13.948,296.953 -12.891,296.414C0.496,289.154 11.047,278.193 21.608,267.407C26.225,262.7 30.982,258.275 36,254C36.95,253.169 37.9,252.337 38.879,251.48C61.757,231.932 87.603,220.07 117,214C118.437,213.679 118.437,213.679 119.902,213.352C125.177,212.257 130.438,211.765 135.81,211.455C136.555,211.412 137.299,211.369 138.066,211.325C145.891,210.905 205.219,210.979 213,211C212.499,202.679 207,156.421 207,153C211.181,154.471 354.516,248.32 354.72,248.44C353.278,252.039 209,344 207,344C207.562,332.705 212.96,293.184 214,287C203.811,287.062 152.032,287.491 150.296,287.498C118.345,287.625 94.9,299.952 72.625,322.25C70.382,324.514 68.144,326.783 65.911,329.057C64.332,330.663 62.745,332.259 61.148,333.848C59.894,335.104 58.651,336.372 57.438,337.668C43.87,352.009 25.794,362.812 8,371C7.007,371.46 6.015,371.92 4.992,372.395C-32.316,388.762 -77.132,391.422 -116,379C-116.744,378.768 -117.488,378.537 -118.254,378.298C-143.776,370.248 -164.951,357.536 -185,340C-186.052,339.135 -187.105,338.272 -188.16,337.41C-190.457,335.461 -192.386,333.608 -194.312,331.312C-196.918,328.25 -199.587,325.269 -202.312,322.312C-236.913,283.776 -254.581,230.612 -252,179C-251.964,178.248 -251.928,177.497 -251.892,176.723C-250.733,155.033 -246.427,133.078 -238,113C-237.628,112.108 -237.256,111.216 -236.872,110.296C-228.755,91.135 -219.032,72.533 -205,57C-204.239,56.144 -203.479,55.288 -202.695,54.406C-201.177,52.708 -199.649,51.018 -198.113,49.336C-196.216,47.238 -194.387,45.099 -192.562,42.938C-165.529,12.156 -122.163,-8.18 -81.726,-11.828C-54.192,-13.566 -25.416,-11.585 0,0Z" style="fill:rgb(226,242,255);"/>
        </g>
        <g transform="matrix(4.595088,0,0,4.800967,2446.455902,2128.69387)">
            <path d="M0.048,-4.023C0.131,3.907 -7.541,249.212 -7.541,249.212L-87.062,248.226C-87.062,248.226 -82.547,60.315 -81.009,58.708C-79.463,57.395 -58.785,42.304 -58.785,42.304C-58.785,42.304 -44.01,30.204 -39.514,25.933C-34.689,21.349 -24.261,11.04 -24.261,11.04L-12.179,1.996C-12.179,1.996 -1.084,-4.023 0.048,-4.023Z" style="fill:rgb(226,242,255);"/>
        </g>
    </g>
</svg>
